<svg width="100" height="100" viewBox="0 0 100 100" xmlns="http://www.w3.org/2000/svg">
  <defs>
    <pattern id="health-pattern" patternUnits="userSpaceOnUse" width="100" height="100">
      <path d="M25 10 L30 10 L30 5 L35 5 L35 10 L40 10 L40 15 L35 15 L35 20 L30 20 L30 15 L25 15 Z" fill="#008DC9" fill-opacity="0.1"/>
      <circle cx="75" cy="25" r="3" fill="#40B5ED" fill-opacity="0.1"/>
      <circle cx="15" cy="75" r="3" fill="#40B5ED" fill-opacity="0.1"/>
      <circle cx="75" cy="75" r="3" fill="#40B5ED" fill-opacity="0.1"/>
      <path d="M65 50 L70 50 L70 45 L75 45 L75 50 L80 50 L80 55 L75 55 L75 60 L70 60 L70 55 L65 55 Z" fill="#008DC9" fill-opacity="0.1"/>
    </pattern>
  </defs>
  <rect width="100" height="100" fill="url(#health-pattern)"/>
</svg> 